<svg viewBox="0 0 120 140" xmlns="http://www.w3.org/2000/svg">
  <defs>
    <linearGradient id="leafGrad" x1="0" y1="0" x2="1" y2="1">
      <stop offset="0%" stop-color="#6fcf5e" />
      <stop offset="100%" stop-color="#1f6b2e" />
    </linearGradient>
    <radialGradient id="gemGrad" cx="40%" cy="35%" r="60%">
      <stop offset="0%" stop-color="#b6f5c8" />
      <stop offset="45%" stop-color="#2fae5c" />
      <stop offset="100%" stop-color="#0f5c30" />
    </radialGradient>
  </defs>

  <path d="M60 6 L108 22 V64 C108 96 88 118 60 134 C32 118 12 96 12 64 V22 Z"
        fill="#16321c" stroke="url(#leafGrad)" stroke-width="4" />

  <!-- Folhas entrelaçadas -->
  <path d="M60 118c-18-6-30-22-30-42 10 4 22 14 30 30 8-16 20-26 30-30 0 20-12 36-30 42Z" fill="url(#leafGrad)" stroke="#0d2312" stroke-width="1.5" />
  <path d="M60 76V40" stroke="#0d2312" stroke-width="2" />

  <!-- Gema esmeralda central -->
  <polygon points="60,28 74,42 68,58 52,58 46,42" fill="url(#gemGrad)" stroke="#0d2312" stroke-width="1.5" />
  <polygon points="60,28 74,42 60,44 46,42" fill="#d8fbe3" opacity="0.35" />
</svg>
